<?xml version="1.0" standalone="no"?>
<!DOCTYPE svg PUBLIC "-//W3C//DTD SVG 20010904//EN"
 "http://www.w3.org/TR/2001/REC-SVG-20010904/DTD/svg10.dtd">
<svg version="1.0" xmlns="http://www.w3.org/2000/svg"
 width="255.000000pt" height="255.000000pt" viewBox="0 0 255.000000 255.000000"
 preserveAspectRatio="xMidYMid meet">
<metadata>
Created by potrace 1.11, written by Peter Selinger 2001-2013
</metadata>
<g transform="translate(0.000000,255.000000) scale(0.100000,-0.100000)"
fill="#000000" stroke="none">
<path d="M690 2300 c-311 -131 -577 -245 -593 -254 l-27 -15 2 -747 3 -748
595 -263 c389 -173 602 -262 615 -258 11 3 281 121 600 263 l580 259 3 749 2
749 -592 253 c-326 138 -600 252 -608 251 -8 0 -269 -107 -580 -239z m664 96
c138 -58 77 -196 -86 -196 -89 1 -168 50 -168 105 0 78 154 133 254 91z m-531
-237 c21 -5 52 -23 70 -39 25 -23 32 -36 32 -68 0 -26 -7 -48 -20 -63 -72 -81
-258 -77 -323 6 -80 101 79 209 241 164z m1063 -8 c110 -50 110 -152 0 -202
-114 -52 -276 7 -276 101 0 94 162 153 276 101z m-518 -241 c63 -29 92 -64 92
-115 0 -128 -231 -184 -345 -84 -57 50 -56 119 3 172 53 48 175 61 250 27z
m-658 -150 c8 -5 11 -10 5 -10 -5 0 -17 5 -25 10 -8 5 -10 10 -5 10 6 0 17 -5
25 -10z m90 -40 c8 -5 11 -10 5 -10 -5 0 -17 5 -25 10 -8 5 -10 10 -5 10 6 0
17 -5 25 -10z m90 -40 c8 -5 11 -10 5 -10 -5 0 -17 5 -25 10 -8 5 -10 10 -5
10 6 0 17 -5 25 -10z m90 -40 c8 -5 11 -10 5 -10 -5 0 -17 5 -25 10 -8 5 -10
10 -5 10 6 0 17 -5 25 -10z m90 -40 c8 -5 11 -10 5 -10 -5 0 -17 5 -25 10 -8
5 -10 10 -5 10 6 0 17 -5 25 -10z m-639 -57 c116 -98 92 -363 -34 -363 -71 0
-127 79 -135 193 -11 153 80 244 169 170z m729 17 c8 -5 11 -10 5 -10 -5 0
-17 5 -25 10 -8 5 -10 10 -5 10 6 0 17 -5 25 -10z m843 -374 c90 -83 80 -267
-17 -341 -128 -98 -252 105 -168 275 41 85 130 117 185 66z m-1059 -396 c91
-80 93 -282 4 -344 -54 -38 -137 -6 -179 67 -30 54 -37 153 -15 212 37 95 122
124 190 65z"/>
</g>
</svg>
