<svg version="1" xmlns="http://www.w3.org/2000/svg" width="646.667" height="646.667" viewBox="0 0 485.000000 485.000000"><path d="M227.3 1.9c-4 1.1-8.3 2.5-9.5 3.2-1.3.6-39.4 22.6-84.7 48.8-67.3 38.9-83.6 48.7-88.8 53.5-3.5 3.3-6 6.2-5.6 6.7C39.9 115.2 241.8 232 242.5 232c.7 0 202.6-116.8 203.8-118 .4-.4-2.1-3.3-5.6-6.6-5.2-4.8-21.7-14.8-89.3-53.9-54.2-31.4-85.3-48.8-89.9-50.4-9.8-3.3-24.3-3.8-34.2-1.2zm23.5 35.6c11.8 3.5 17.8 13.5 13.8 22.8-5 11.7-25 17.1-38.7 10.4-17.2-8.4-13.6-27.9 6.1-33.1 7.2-1.9 12.5-1.9 18.8-.1zm-84.2 47c11.3 7 12.4 19.6 2.5 27.4-5.1 4.1-12 6.1-20.5 6.1-5.9 0-8.2-.5-12.6-2.8-7.4-3.7-11.2-8.6-11.2-14.5 0-12.3 11.2-20 28.3-19.5 7.5.3 9.1.7 13.5 3.3zM347.3 86c11.7 4.4 16.3 15.4 10.3 24.5-2.4 3.6-9.2 8.3-14 9.7-5.7 1.6-16.3 1.3-21.1-.7-12.3-5.2-16.6-14.5-11-24.1 5.9-10 22.4-14.4 35.8-9.4zm-91 43.1c13.5 3.4 19.9 15.9 13.3 25.9-4.2 6.4-14.7 11-25 11-11.8 0-23.6-8.9-23.6-17.9 0-13.5 18.3-23.3 35.3-19zM26.9 135.7c-1.1 3.1-1.4 22.9-1.4 106.8v103l2.4 7.4c3.2 9.8 10.8 20.9 18.1 26.9 5.2 4.2 157.9 93.3 170.5 99.5 4.9 2.4 9.3 3.9 14.8 5.1l2.7.6V250.3l-101.2-58.6c-55.7-32.2-102-58.9-102.9-59.2-1.3-.5-2 .3-3 3.2zm152.9 122.1c7.2 3.3 13.1 17.3 11.8 28.1-.9 7.3-3.5 12.9-7.9 16.8-6.4 5.6-13.7 5.6-20.4-.2-5.9-5-8.7-12.1-8.7-22-.1-9.2 2-14.9 7.3-20.2 5.2-5.3 10.4-6 17.9-2.5zM78.5 311.4c4.9 3.8 8.2 10 9.6 18.2 1.1 6.3 1 7.6-.9 13.9-3.1 10.1-8.7 15.6-16.1 15.7-16 .2-25.4-23.5-16.4-41.1 5.1-9.9 15.6-12.9 23.8-6.7zM353.3 191.2L251 250.4V367c0 64.2.3 116.9.6 117.2.9 1 11.5-2.2 17.7-5.3 7.4-3.8 154.1-88.7 162.2-93.9 11.9-7.7 21.1-19.4 25.7-32.9l2.3-6.6V243c0-80.8-.3-103.4-1.3-106.8-.7-2.3-1.6-4.2-2-4.2-.4 0-46.7 26.7-102.9 59.2zm24.7 93.3c4.3 2.2 7.8 7.4 9.5 14.4 3.6 13.7-3 29.5-14 33.7-8.6 3.2-15.6.1-20.1-9.3-3.8-7.7-3.8-18.2-.1-26.3 3.2-6.7 4.2-8 9.1-11.4 4.5-3 11-3.5 15.6-1.1z"/></svg>